<svg width="22" height="22" viewBox="0 0 22 22" fill="none" xmlns="http://www.w3.org/2000/svg">
<g opacity="0.5">
<path d="M7.96016 2.79704C8.14833 2.73432 8.35175 2.73432 8.53992 2.79704L13.75 4.53375L17.7536 3.19922C18.9408 2.80351 20.1667 3.68712 20.1667 4.93847V15.8393C20.1667 16.6284 19.6617 17.329 18.9131 17.5786L14.0399 19.203C13.8518 19.2657 13.6483 19.2657 13.4602 19.203L8.25004 17.4663L4.24646 18.8008C3.05932 19.1965 1.83337 18.3129 1.83337 17.0615V6.1607C1.83337 5.37157 2.33833 4.67099 3.08696 4.42144L7.96016 2.79704ZM9.16671 15.8393L12.8334 17.0615V6.1607L9.16671 4.93847V15.8393ZM7.33337 4.93847L3.66671 6.1607V17.0615L7.33337 15.8393V4.93847ZM14.6667 6.1607V17.0615L18.3334 15.8393V4.93847L14.6667 6.1607Z" fill="white"/>
</g>
</svg>
