<svg width="22" height="22" viewBox="0 0 22 22" fill="none" xmlns="http://www.w3.org/2000/svg">
<g opacity="0.5">
<path d="M10.0834 3.66671C8.05829 3.66671 6.41671 5.30832 6.41671 7.33337C6.41671 7.36309 6.41714 7.39413 6.41791 7.42709C6.42788 7.85337 6.14261 8.23023 5.72963 8.33635C4.54283 8.64132 3.66671 9.71956 3.66671 11C3.66671 12.5188 4.89795 13.75 6.41671 13.75H7.33337C7.83963 13.75 8.25004 14.1604 8.25004 14.6667C8.25004 15.173 7.83963 15.5834 7.33337 15.5834H6.41671C3.88544 15.5834 1.83337 13.5314 1.83337 11C1.83337 9.10938 2.97756 7.48779 4.61019 6.78679C4.88455 4.00583 7.23021 1.83337 10.0834 1.83337C12.1216 1.83337 13.8993 2.94193 14.8491 4.58634C17.8023 4.68258 20.1667 7.10686 20.1667 10.0834C20.1667 13.1209 17.7043 15.5834 14.6667 15.5834C14.1604 15.5834 13.75 15.173 13.75 14.6667C13.75 14.1604 14.1604 13.75 14.6667 13.75C16.6918 13.75 18.3334 12.1084 18.3334 10.0834C18.3334 8.05832 16.6918 6.41671 14.6667 6.41671C14.5652 6.41671 14.465 6.42081 14.3659 6.42882C13.9746 6.46049 13.6065 6.23942 13.4506 5.87908C12.8869 4.5758 11.5903 3.66671 10.0834 3.66671ZM10.3519 8.51853C10.7098 8.16055 11.2902 8.16055 11.6482 8.51853L13.4816 10.3519C13.8395 10.7098 13.8395 11.2902 13.4816 11.6482C13.1236 12.0062 12.5432 12.0062 12.1852 11.6482L11.9167 11.3797V18.3334C11.9167 18.8396 11.5063 19.25 11 19.25C10.4938 19.25 10.0834 18.8396 10.0834 18.3334V11.3797L9.81489 11.6482C9.45691 12.0062 8.87651 12.0062 8.51853 11.6482C8.16055 11.2902 8.16055 10.7098 8.51853 10.3519L10.3519 8.51853Z" fill="white"/>
</g>
</svg>
