<svg width="22" height="22" viewBox="0 0 22 22" fill="none" xmlns="http://www.w3.org/2000/svg">
<g opacity="0.5">
<path d="M11 3.66665C8.97496 3.66665 7.33333 5.30827 7.33333 7.33331C7.33333 9.35836 8.97496 11 11 11C13.025 11 14.6667 9.35836 14.6667 7.33331C14.6667 5.30827 13.025 3.66665 11 3.66665ZM5.5 7.33331C5.5 4.29575 7.96243 1.83331 11 1.83331C14.0376 1.83331 16.5 4.29575 16.5 7.33331C16.5 10.3709 14.0376 12.8333 11 12.8333C7.96243 12.8333 5.5 10.3709 5.5 7.33331ZM7.33333 16.5C5.81455 16.5 4.58333 17.7312 4.58333 19.25C4.58333 19.7562 4.17293 20.1666 3.66667 20.1666C3.16041 20.1666 2.75 19.7562 2.75 19.25C2.75 16.7187 4.80203 14.6666 7.33333 14.6666H14.6667C17.198 14.6666 19.25 16.7187 19.25 19.25C19.25 19.7562 18.8396 20.1666 18.3333 20.1666C17.8271 20.1666 17.4167 19.7562 17.4167 19.25C17.4167 17.7312 16.1854 16.5 14.6667 16.5H7.33333Z" fill="white"/>
</g>
</svg>
