<svg width="22" height="22" viewBox="0 0 22 22" fill="none" xmlns="http://www.w3.org/2000/svg">
<g opacity="0.5">
<path d="M8.25 1.83337C8.75626 1.83337 9.16667 2.24378 9.16667 2.75004V3.66671H12.8333V2.75004C12.8333 2.24378 13.2437 1.83337 13.75 1.83337C14.2563 1.83337 14.6667 2.24378 14.6667 2.75004V3.66671H17.4167C18.4292 3.66671 19.25 4.48752 19.25 5.50004V17.4167C19.25 18.4292 18.4292 19.25 17.4167 19.25H4.58333C3.57081 19.25 2.75 18.4292 2.75 17.4167V5.50004C2.75 4.48752 3.57081 3.66671 4.58333 3.66671H7.33333V2.75004C7.33333 2.24378 7.74374 1.83337 8.25 1.83337ZM7.33333 5.50004H4.58333V8.25004H17.4167V5.50004H14.6667V6.41671C14.6667 6.92297 14.2563 7.33337 13.75 7.33337C13.2437 7.33337 12.8333 6.92297 12.8333 6.41671V5.50004H9.16667V6.41671C9.16667 6.92297 8.75626 7.33337 8.25 7.33337C7.74374 7.33337 7.33333 6.92297 7.33333 6.41671V5.50004ZM17.4167 10.0834H4.58333V17.4167H17.4167V10.0834Z" fill="white"/>
</g>
</svg>
