<svg width="22" height="22" viewBox="0 0 22 22" fill="none" xmlns="http://www.w3.org/2000/svg">
<g opacity="0.5">
<path d="M8.24996 4.58333C7.7437 4.58333 7.33329 4.99374 7.33329 5.5C7.33329 6.00626 7.7437 6.41667 8.24996 6.41667C8.75622 6.41667 9.16663 6.00626 9.16663 5.5C9.16663 4.99374 8.75622 4.58333 8.24996 4.58333ZM5.65644 4.58333C6.03396 3.51524 7.05259 2.75 8.24996 2.75C9.44733 2.75 10.466 3.51524 10.8435 4.58333H17.4166C17.9229 4.58333 18.3333 4.99374 18.3333 5.5C18.3333 6.00626 17.9229 6.41667 17.4166 6.41667H10.8435C10.466 7.48476 9.44733 8.25 8.24996 8.25C7.05259 8.25 6.03396 7.48476 5.65644 6.41667H4.58329C4.07703 6.41667 3.66663 6.00626 3.66663 5.5C3.66663 4.99374 4.07703 4.58333 4.58329 4.58333H5.65644ZM13.75 10.0833C13.2437 10.0833 12.8333 10.4937 12.8333 11C12.8333 11.5063 13.2437 11.9167 13.75 11.9167C14.2562 11.9167 14.6666 11.5063 14.6666 11C14.6666 10.4937 14.2562 10.0833 13.75 10.0833ZM11.1564 10.0833C11.534 9.01524 12.5526 8.25 13.75 8.25C14.9473 8.25 15.966 9.01524 16.3435 10.0833H17.4166C17.9229 10.0833 18.3333 10.4937 18.3333 11C18.3333 11.5063 17.9229 11.9167 17.4166 11.9167H16.3435C15.966 12.9848 14.9473 13.75 13.75 13.75C12.5526 13.75 11.534 12.9848 11.1564 11.9167H4.58329C4.07703 11.9167 3.66663 11.5063 3.66663 11C3.66663 10.4937 4.07703 10.0833 4.58329 10.0833H11.1564ZM8.24996 15.5833C7.7437 15.5833 7.33329 15.9937 7.33329 16.5C7.33329 17.0063 7.7437 17.4167 8.24996 17.4167C8.75622 17.4167 9.16663 17.0063 9.16663 16.5C9.16663 15.9937 8.75622 15.5833 8.24996 15.5833ZM5.65644 15.5833C6.03396 14.5152 7.05259 13.75 8.24996 13.75C9.44733 13.75 10.466 14.5152 10.8435 15.5833H17.4166C17.9229 15.5833 18.3333 15.9937 18.3333 16.5C18.3333 17.0063 17.9229 17.4167 17.4166 17.4167H10.8435C10.466 18.4848 9.44733 19.25 8.24996 19.25C7.05259 19.25 6.03396 18.4848 5.65644 17.4167H4.58329C4.07703 17.4167 3.66663 17.0063 3.66663 16.5C3.66663 15.9937 4.07703 15.5833 4.58329 15.5833H5.65644Z" fill="white"/>
</g>
</svg>
